<svg xmlns="http://www.w3.org/2000/svg" width="27.149" height="21" viewBox="0 0 27.149 21">
  <g id="car" transform="translate(0 -53)">
    <g id="Group_8147" data-name="Group 8147" transform="translate(0 53)">
      <g id="Group_8146" data-name="Group 8146" transform="translate(0 0)">
        <path id="Path_27545" data-name="Path 27545" d="M26.111,60.8l-.592-.627-2.077-5.6A2.436,2.436,0,0,0,21.174,53H6.341a2.428,2.428,0,0,0-2.268,1.578L2.025,60.106l-.853.789A3.333,3.333,0,0,0,0,63.43v8.156A2.425,2.425,0,0,0,2.425,74H3.956a2.425,2.425,0,0,0,2.425-2.413V70.4H20.768v1.183A2.425,2.425,0,0,0,23.193,74h1.531a2.425,2.425,0,0,0,2.425-2.413V63.216A3.364,3.364,0,0,0,26.111,60.8ZM5.163,54.972a1.255,1.255,0,0,1,1.178-.812H21.18a1.263,1.263,0,0,1,1.178.812l1.81,4.873H22.816a3.979,3.979,0,0,0-7.872,0H3.353Zm16.469,4.873H16.116a2.818,2.818,0,0,1,5.517,0ZM5.221,71.587A1.261,1.261,0,0,1,3.956,72.84H2.425A1.261,1.261,0,0,1,1.16,71.587v-1.52a2.356,2.356,0,0,0,1.265.336h2.8Zm20.768,0a1.261,1.261,0,0,1-1.265,1.253H23.193a1.265,1.265,0,0,1-1.265-1.253V70.4h2.8a2.356,2.356,0,0,0,1.265-.336v1.52Zm-1.265-2.344H2.425A1.252,1.252,0,0,1,1.16,68V63.43a2.178,2.178,0,0,1,.772-1.659l.023-.023.789-.743H24.713l.557.6c.006.012.023.017.029.029a2.186,2.186,0,0,1,.685,1.584V68h.006A1.255,1.255,0,0,1,24.724,69.243Z" transform="translate(0 -53)" fill="#111749"/>
      </g>
    </g>
    <g id="Group_8149" data-name="Group 8149" transform="translate(2.727 63.326)">
      <g id="Group_8148" data-name="Group 8148" transform="translate(0 0)">
        <path id="Path_27546" data-name="Path 27546" d="M51.931,231H47.58a.582.582,0,0,0-.58.58V234.6a.582.582,0,0,0,.58.58h4.351a.582.582,0,0,0,.58-.58V231.58A.582.582,0,0,0,51.931,231Zm-.58,3.017H48.16V232.16h3.191Z" transform="translate(-47 -231)" fill="#111749"/>
      </g>
    </g>
    <g id="Group_8151" data-name="Group 8151" transform="translate(18.912 63.326)">
      <g id="Group_8150" data-name="Group 8150" transform="translate(0 0)">
        <path id="Path_27547" data-name="Path 27547" d="M330.931,231H326.58a.582.582,0,0,0-.58.58V234.6a.582.582,0,0,0,.58.58h4.351a.582.582,0,0,0,.58-.58V231.58A.582.582,0,0,0,330.931,231Zm-.58,3.017H327.16V232.16h3.191Z" transform="translate(-326 -231)" fill="#111749"/>
      </g>
    </g>
    <g id="Group_8153" data-name="Group 8153" transform="translate(10.193 65.762)">
      <g id="Group_8152" data-name="Group 8152" transform="translate(0 0)">
        <path id="Path_27548" data-name="Path 27548" d="M181.884,273h-5.6a.58.58,0,1,0,0,1.16h5.6a.58.58,0,1,0,0-1.16Z" transform="translate(-175.7 -273)" fill="#111749"/>
      </g>
    </g>
    <g id="Group_8155" data-name="Group 8155" transform="translate(10.193 63.964)">
      <g id="Group_8154" data-name="Group 8154" transform="translate(0 0)">
        <path id="Path_27549" data-name="Path 27549" d="M181.884,242h-5.6a.58.58,0,1,0,0,1.16h5.6a.58.58,0,1,0,0-1.16Z" transform="translate(-175.7 -242)" fill="#111749"/>
      </g>
    </g>
  </g>
</svg>
