<svg xmlns="http://www.w3.org/2000/svg" width="25.624" height="19.218" viewBox="0 0 25.624 19.218">
  <g id="email" transform="translate(0 -64)">
    <g id="Group_8145" data-name="Group 8145" transform="translate(0 64)">
      <path id="Path_27544" data-name="Path 27544" d="M23.488,64H2.135A2.137,2.137,0,0,0,0,66.135V81.082a2.137,2.137,0,0,0,2.135,2.135H23.488a2.137,2.137,0,0,0,2.135-2.135V66.135A2.137,2.137,0,0,0,23.488,64ZM2.135,65.068H23.488a1.016,1.016,0,0,1,.222.045c-1.849,1.692-7.979,7.3-10.124,9.232a1.071,1.071,0,0,1-1.55,0C9.892,72.412,3.762,66.8,1.913,65.113A1.02,1.02,0,0,1,2.135,65.068ZM1.068,81.082V66.135a1.031,1.031,0,0,1,.06-.3c1.415,1.295,5.692,5.208,8.465,7.73C6.828,75.945,2.55,80,1.124,81.361A1.029,1.029,0,0,1,1.068,81.082ZM23.488,82.15H2.135a1.021,1.021,0,0,1-.241-.049c1.474-1.4,5.779-5.484,8.495-7.808l.932.844a2.132,2.132,0,0,0,2.979,0l.933-.844c2.716,2.323,7.021,6.4,8.495,7.808A1.02,1.02,0,0,1,23.488,82.15Zm1.068-1.068a1.031,1.031,0,0,1-.056.278C23.073,80,18.8,75.944,16.031,73.57c2.773-2.522,7.05-6.434,8.465-7.73a1.032,1.032,0,0,1,.06.3Z" transform="translate(0 -64)" fill="#111749"/>
    </g>
  </g>
</svg>
