<svg id="home" xmlns="http://www.w3.org/2000/svg" width="21.911" height="17.437" viewBox="0 0 21.911 17.437">
  <g id="Group_8156" data-name="Group 8156" transform="translate(0 0)">
    <path id="Path_27551" data-name="Path 27551" d="M73.526,120.939l-7.815,6.442a.185.185,0,0,1-.007.041.186.186,0,0,0-.007.041v6.523a.883.883,0,0,0,.87.87h5.219v-5.219h3.48v5.219h5.219a.883.883,0,0,0,.87-.87v-6.523a.191.191,0,0,0-.014-.081Z" transform="translate(-62.571 -117.419)"/>
    <path id="Path_27552" data-name="Path 27552" d="M21.759,55.488l-2.976-2.474V47.47a.419.419,0,0,0-.435-.435H15.739a.418.418,0,0,0-.435.435v2.65l-3.316-2.773a1.686,1.686,0,0,0-2.066,0L.15,55.488A.4.4,0,0,0,0,55.78a.44.44,0,0,0,.1.32l.843,1.006a.464.464,0,0,0,.285.15.505.505,0,0,0,.326-.1l9.4-7.842,9.4,7.842a.419.419,0,0,0,.285.095h.041a.464.464,0,0,0,.285-.149l.843-1.006a.44.44,0,0,0,.095-.32A.4.4,0,0,0,21.759,55.488Z" transform="translate(0.001 -46.994)"/>
  </g>
</svg>
