<svg xmlns="http://www.w3.org/2000/svg" xmlns:xlink="http://www.w3.org/1999/xlink" width="31" height="51" viewBox="0 0 31 51">
  <defs>
    <clipPath id="clip-path">
      <rect width="31" height="51" fill="none"/>
    </clipPath>
  </defs>
  <g id="location" clip-path="url(#clip-path)">
    <g id="location-2" data-name="location" transform="translate(-293.796 -9.007)">
      <g id="Group_8132" data-name="Group 8132" transform="translate(293.796 9.007)">
        <path id="Path_10171" data-name="Path 10171" d="M43.624,42.051l8.662-13.763a.776.776,0,0,0,.07-.14,15.107,15.107,0,0,0,2.285-7.975,15.479,15.479,0,0,0-30.955,0,15.113,15.113,0,0,0,2.288,7.978.88.88,0,0,0,.062.123l8.351,13.81c-6.483.905-10.746,3.539-10.746,6.735,0,3.959,6.808,7.06,15.5,7.06s15.5-3.1,15.5-7.06C54.642,45.61,50.18,42.917,43.624,42.051ZM27.531,27.381a13.417,13.417,0,0,1-2.11-7.207,13.745,13.745,0,0,1,27.489,0,13.416,13.416,0,0,1-2.11,7.207.821.821,0,0,0-.072.142L41.576,42.062c-.137.208-.165.256-.333.529l-2.311,3.672L27.608,27.535A.857.857,0,0,0,27.531,27.381ZM39.142,54.167c-8.113,0-13.767-2.818-13.767-5.347,0-2.295,4.258-4.457,9.985-5.127l2.814,4.653a.868.868,0,0,0,.736.417h.008a.87.87,0,0,0,.736-.4l2.958-4.7c5.818.623,10.3,2.84,10.3,5.161C52.909,51.349,47.255,54.167,39.142,54.167Z" transform="translate(-23.642 -4.88)" fill="#003c94"/>
        <path id="Path_10172" data-name="Path 10172" d="M51.943,27.535a5.606,5.606,0,1,0-5.606,5.606A5.613,5.613,0,0,0,51.943,27.535Zm-9.486,0a3.88,3.88,0,1,1,3.88,3.88A3.884,3.884,0,0,1,42.458,27.535Z" transform="translate(-30.837 -12.218)" fill="#003c94"/>
      </g>
    </g>
  </g>
</svg>
