<svg xmlns="http://www.w3.org/2000/svg" width="20.247" height="30" viewBox="0 0 20.247 30">
  <path id="man" d="M98.28,26.547V29.5a.5.5,0,0,1-1,0V26.547a4.158,4.158,0,0,0-4.16-4.16A3.07,3.07,0,0,1,90.479,20.9a.5.5,0,1,1,.854-.52,2.077,2.077,0,0,0,1.787,1,5.157,5.157,0,0,1,5.16,5.16Zm-8.724-5.011a.5.5,0,0,1-.382.595,4.785,4.785,0,0,1-3.719-.728,3.032,3.032,0,0,1-2.262.984,4.158,4.158,0,0,0-4.16,4.16V29.5a.5.5,0,0,1-1,0V26.547a5.157,5.157,0,0,1,5.16-5.16A2.084,2.084,0,0,0,85.282,19.3v-.132a6.7,6.7,0,0,1-3.807-5.789,2.04,2.04,0,0,1-1.567-1.976V8.815a9.158,9.158,0,0,1,2.478-6.679c2.861-2.758,7.448-2.582,10.821-.959a.5.5,0,0,1,.106.833,6.748,6.748,0,0,1,4.129,2.971.552.552,0,0,1,.115.393.506.506,0,0,1-.143.317A3.264,3.264,0,0,0,96.468,8v3.41a.5.5,0,0,1-1,0V8a4.256,4.256,0,0,1,.971-2.718,5.775,5.775,0,0,0-4.145-2.434l-.879-.094a.5.5,0,0,1-.137-.959l.4-.165c-5.2-1.814-10.771.2-10.771,7.182v2.6a1.032,1.032,0,0,0,.562.915V9.08a3.5,3.5,0,0,1,3.5-3.5h6.374a3.5,3.5,0,0,1,3.5,3.5v4.093a6.7,6.7,0,0,1-8.572,6.378,3.057,3.057,0,0,1-.262,1.021,3.786,3.786,0,0,0,2.951.582.5.5,0,0,1,.595.382Zm-1.4-2.714a5.693,5.693,0,0,0,5.687-5.687V9.08a2.5,2.5,0,0,0-2.5-2.5H84.97a2.5,2.5,0,0,0-2.5,2.5v4.055A5.693,5.693,0,0,0,88.157,18.822Zm5.062,8.616h-1.5a.5.5,0,1,0,0,1h1.5a.5.5,0,1,0,0-1Z" transform="translate(-78.033 0)" fill="#111749"/>
</svg>
