<svg xmlns="http://www.w3.org/2000/svg" width="35" height="51" viewBox="0 0 35 51">
  <g id="phone_call" transform="translate(-62.344 -236.797)">
    <g id="Group_8133" data-name="Group 8133" transform="translate(62.344 236.797)">
      <path id="Path_10173" data-name="Path 10173" d="M27.614,56.324a3.076,3.076,0,0,0-2.464-1.684,3.153,3.153,0,0,0-2.493,1.674l-2.3,3.423c-.19-.152-.379-.293-.561-.435a8.926,8.926,0,0,1-.722-.576,32.422,32.422,0,0,1-6-8.151,25.409,25.409,0,0,1-1.968-4.63c.6-.815,1.152-1.663,1.691-2.478.2-.3.408-.619.612-.924a6.732,6.732,0,0,0,0-7.52l-1.99-2.967c-.226-.337-.459-.685-.678-1.032-.437-.674-.9-1.369-1.37-2.021a3.07,3.07,0,0,0-2.442-1.6A3.156,3.156,0,0,0,4.449,29l-.015.022L1.956,32.753A9.986,9.986,0,0,0,.374,37.806a27.5,27.5,0,0,0,.933,8.064A55.051,55.051,0,0,0,6.884,59.737,40.712,40.712,0,0,0,18.306,73.071,13.882,13.882,0,0,0,24.721,75.9c.153.011.313.022.459.022a4.89,4.89,0,0,0,4.206-2.7c.007-.022.022-.033.029-.054A23.176,23.176,0,0,1,30.69,71.2c.313-.446.634-.913.948-1.4a6.931,6.931,0,0,0,1.1-3.76,6.621,6.621,0,0,0-1.123-3.728Zm2.61,11.443c-.007,0-.007.011,0,0-.284.456-.576.869-.889,1.326-.474.674-.955,1.38-1.407,2.173a3.115,3.115,0,0,1-2.741,1.728c-.109,0-.226,0-.335-.011a12.371,12.371,0,0,1-5.686-2.543A38.433,38.433,0,0,1,8.407,57.878a51.886,51.886,0,0,1-5.248-13.03,22.437,22.437,0,0,1-.816-6.8,6.27,6.27,0,0,1,1.006-3.228l2.486-3.706a1.5,1.5,0,0,1,1.108-.772,1.454,1.454,0,0,1,1.064.761l.022.033c.445.619.867,1.261,1.312,1.945.226.348.459.7.692,1.054l1.99,2.967a2.738,2.738,0,0,1,0,3.369c-.211.315-.415.63-.627.935-.612.935-1.2,1.8-1.83,2.652a.236.236,0,0,0-.036.054,3.047,3.047,0,0,0-.379,2.467l.022.1A27.836,27.836,0,0,0,11.527,52.4l.007.011a34.623,34.623,0,0,0,6.473,8.781,9.663,9.663,0,0,0,.9.728,8.926,8.926,0,0,1,.722.576c.029.022.058.054.087.076a1.19,1.19,0,0,0,.722.272,1.457,1.457,0,0,0,1.108-.75l2.493-3.717c.248-.369.641-.815,1.1-.815s.824.424,1.05.793l.015.022,4.016,5.988A2.861,2.861,0,0,1,30.224,67.768Z" transform="translate(-0.344 -24.918)" fill="#003c94"/>
      <path id="Path_10174" data-name="Path 10174" d="M245.952,88.356a11.682,11.682,0,0,1,9.513,9.513,1.218,1.218,0,0,0,1.207,1.017,1.621,1.621,0,0,0,.209-.018,1.227,1.227,0,0,0,1.008-1.416,14.126,14.126,0,0,0-11.51-11.51,1.232,1.232,0,0,0-1.416,1A1.212,1.212,0,0,0,245.952,88.356Z" transform="translate(-228.625 -76.051)" fill="#003c94"/>
      <path id="Path_10175" data-name="Path 10175" d="M269.152,18.972A23.26,23.26,0,0,0,250.2.019a1.224,1.224,0,1,0-.4,2.415,20.776,20.776,0,0,1,16.938,16.938,1.218,1.218,0,0,0,1.207,1.017,1.621,1.621,0,0,0,.209-.018A1.2,1.2,0,0,0,269.152,18.972Z" transform="translate(-234.171 0)" fill="#003c94"/>
    </g>
  </g>
</svg>
