<svg xmlns="http://www.w3.org/2000/svg" width="39.999" height="39.999" viewBox="0 0 39.999 39.999">
  <g id="pick_image" transform="translate(2 1)">
    <g id="Two-Tone" transform="translate(-2 -1)">
      <g id="Image">
        <g id="Two-Tone-_-Image-_-add_photo_alternate" data-name="Two-Tone-/-Image-/-add_photo_alternate">
          <g id="Group_8122" data-name="Group 8122">
            <path id="Path" d="M0,0H40V40H0Z" fill="none" fill-rule="evenodd"/>
            <path id="_-Primary-Color" data-name="🔹-Primary-Color" d="M15.683,27.382l4.583-5.9,5.9,7.85H7.833l4.583-5.883ZM32,6h5V9.333H32v4.983H28.666V9.333h-5V6h5V1H32ZM28.666,32.666V16H32V32.666A3.343,3.343,0,0,1,28.666,36H5.333A3.343,3.343,0,0,1,2,32.666V9.333A3.343,3.343,0,0,1,5.333,6H22V9.333H5.333V32.666Z" transform="translate(1.333 0.667)" fill="#003c94" fill-rule="evenodd"/>
            <path id="_-Secondary-Color" data-name="🔹-Secondary-Color" d="M24.833,26H6.5l4.583-5.883,3.267,3.933,4.583-5.9Zm.833-18.333h-5V6H4V29.333H27.333V12.666H25.666Z" transform="translate(2.666 4)" fill="#fff" fill-rule="evenodd"/>
          </g>
        </g>
      </g>
    </g>
  </g>
</svg>
