<svg xmlns="http://www.w3.org/2000/svg" width="21.201" height="17.668" viewBox="0 0 21.201 17.668">
  <g id="work_bag" transform="translate(0 -2)">
    <path id="Path_27553" data-name="Path 27553" d="M14.184,5.975a.884.884,0,0,1-.883-.883V3.767H9.767V5.092A.883.883,0,1,1,8,5.092V3.767A1.769,1.769,0,0,1,9.767,2H13.3a1.769,1.769,0,0,1,1.767,1.767V5.092A.884.884,0,0,1,14.184,5.975Z" transform="translate(-0.933)"/>
    <path id="Path_27554" data-name="Path 27554" d="M15.9,11.625v.813a.663.663,0,0,1-1.325,0v-.813H6.625v.813a.663.663,0,1,1-1.325,0v-.813H0v5.963a2.428,2.428,0,0,0,2.429,2.429H18.772A2.428,2.428,0,0,0,21.2,17.588V11.625ZM18.772,5H2.429A2.428,2.428,0,0,0,0,7.429V10.3H5.3V9.2a.663.663,0,1,1,1.325,0v1.1h7.95V9.2a.663.663,0,1,1,1.325,0v1.1h5.3V7.429A2.428,2.428,0,0,0,18.772,5Z" transform="translate(0 -0.35)"/>
  </g>
</svg>
